<svg width="18" height="18" viewBox="0 0 18 18" fill="none" xmlns="http://www.w3.org/2000/svg">
<path d="M0.000221658 13.091C0.000221618 13.9947 0.732847 14.7273 1.63659 14.7273C2.54032 14.7273 3.27295 13.9947 3.27295 13.091C3.27295 12.1872 2.54032 11.4546 1.63659 11.4546C0.732847 11.4546 0.000221697 12.1872 0.000221658 13.091Z" fill="#305972"/>
<path d="M7.3635 1.63636C7.3635 2.5401 8.09613 3.27273 8.99987 3.27273C9.90361 3.27273 10.6362 2.5401 10.6362 1.63636C10.6362 0.732625 9.90361 -3.20241e-08 8.99987 -7.15277e-08C8.09613 -1.11031e-07 7.3635 0.732625 7.3635 1.63636Z" fill="#305972"/>
<path d="M6.54563 16.3634C6.54563 17.2672 7.27826 17.9998 8.182 17.9998C9.08573 17.9998 9.81836 17.2672 9.81836 16.3634C9.81836 15.4597 9.08573 14.7271 8.182 14.7271C7.27826 14.7271 6.54563 15.4597 6.54563 16.3634Z" fill="#305972"/>
<path d="M14.7273 13.9093C14.7273 14.8131 15.4599 15.5457 16.3636 15.5457C17.2674 15.5457 18 14.8131 18 13.9093C18 13.0056 17.2674 12.2729 16.3636 12.2729C15.4599 12.2729 14.7273 13.0056 14.7273 13.9093Z" fill="#305972"/>
<path d="M4.90891 8.18177C4.90891 9.08551 5.64154 9.81814 6.54528 9.81814C7.44902 9.81814 8.18164 9.08551 8.18164 8.18177C8.18164 7.27804 7.44902 6.54541 6.54528 6.54541C5.64154 6.54541 4.90891 7.27803 4.90891 8.18177Z" fill="#305972"/>
<path d="M9.81858 10.6364C9.81858 11.5401 10.5512 12.2727 11.4549 12.2727C12.3587 12.2727 13.0913 11.5401 13.0913 10.6364C13.0913 9.73262 12.3587 9 11.4549 9C10.5512 9 9.81858 9.73262 9.81858 10.6364Z" fill="#305972"/>
<path d="M14.7273 4.90931C14.7273 5.81305 15.4599 6.54568 16.3636 6.54568C17.2674 6.54568 18 5.81305 18 4.90931C18 4.00557 17.2674 3.27295 16.3636 3.27295C15.4599 3.27295 14.7273 4.00557 14.7273 4.90931Z" fill="#305972"/>
<path d="M0.000221658 4.90931C0.000221618 5.81305 0.732847 6.54568 1.63659 6.54568C2.54032 6.54568 3.27295 5.81305 3.27295 4.90931C3.27295 4.00557 2.54032 3.27295 1.63659 3.27295C0.732847 3.27295 0.000221697 4.00557 0.000221658 4.90931Z" fill="#305972"/>
<path d="M16.3643 4.90905L16.3643 13.909M16.3643 4.90905L9.00022 2.04541M16.3643 4.90905L6.13659 8.18177M16.3643 4.90905L11.4552 10.6363M16.3643 13.909L8.18204 16.3636M16.3643 13.909L11.4552 10.6363M9.00022 2.04541L1.63699 4.90905M9.00022 2.04541L6.13659 8.18177M6.13659 8.18177L8.18204 16.3636M6.13659 8.18177L1.63698 13.0909M6.13659 8.18177L1.63699 4.90905M6.13659 8.18177L11.4552 10.6363M11.4552 10.6363L8.18204 16.3636M8.18204 16.3636L1.63698 13.0909M1.63698 13.0909L1.63699 4.90905" stroke="#305972" stroke-width="2"/>
</svg>
