<svg width="183" height="164" viewBox="0 0 183 164" fill="none" xmlns="http://www.w3.org/2000/svg">
<path d="M74.6022 57.2841C81.1486 53.6799 111.874 39.5735 129.385 71.5288C146.896 103.484 117.89 119.704 128.657 139.471C128.657 139.471 133.166 146.086 125.927 149.942C118.688 153.798 115.662 146.665 115.662 146.665C104.802 126.949 74.9802 143.084 57.3535 111.21C39.7269 79.3354 68.0599 60.8874 74.6022 57.2841ZM85.3786 126.665L86.5634 125.998C90.2575 123.91 92.7416 120.029 93.6399 114.98C97.0429 116.295 100.373 116.636 103.329 115.952C104.517 115.678 105.66 115.234 106.722 114.634C110.418 112.558 112.901 108.668 113.792 103.609C117.203 104.922 120.534 105.267 123.502 104.58C124.684 104.304 125.821 103.861 126.879 103.266L128.065 102.603L125.222 97.5424L124.038 98.2135C123.468 98.5294 122.858 98.7659 122.224 98.9163C119.371 99.5728 116.327 98.5238 114.131 97.4222C113.871 92.8669 112.603 88.2122 110.685 84.8189C108.399 80.755 105.318 78.8335 102.231 79.5481C101.657 79.6811 101.106 79.8984 100.596 80.1928C97.0871 82.175 96.604 86.402 99.3221 91.2307C101.237 94.6289 104.571 98.1243 108.313 100.691C108.043 104.986 106.464 108.136 103.88 109.595C103.301 109.922 102.679 110.164 102.031 110.314C99.1981 110.966 96.1731 109.908 93.982 108.81C93.5592 101.174 90.4588 94.0465 86.4978 91.7107C85.1698 90.8842 83.5705 90.612 82.0438 90.9525C81.482 91.0848 80.9415 91.2953 80.4382 91.5779C79.504 92.095 78.7289 92.8574 78.1965 93.783C77.6641 94.7085 77.3948 95.7619 77.4176 96.8294C77.3719 101.426 81.8607 107.768 88.168 112.077C87.958 114.811 87.0871 119.085 83.7299 120.978L82.5441 121.641L85.3786 126.665ZM82.1999 96.8449C82.1705 96.6207 82.2103 96.3929 82.314 96.1921C82.4178 95.9912 82.5806 95.8269 82.7804 95.7212C82.865 95.673 82.9545 95.6342 83.0474 95.6052L83.1151 95.5896C83.2752 95.5611 83.4394 95.5647 83.5981 95.6002C83.7568 95.6357 83.9069 95.7024 84.0396 95.7964C85.9034 96.8947 88.1731 101.197 88.9482 106.662C84.6814 103.18 82.1495 98.9962 82.1999 96.8449ZM102.938 84.3529C103.007 84.3136 103.079 84.2814 103.155 84.2568L103.226 84.2403C104.298 83.9936 105.633 85.5828 106.507 87.1564C107.691 89.2545 108.625 92.2406 109.074 95.284C106.841 93.497 104.949 91.3215 103.489 88.8622C103.151 88.2518 101.505 85.165 102.938 84.3529V84.3529Z" fill="#08BDFD"/>
<path d="M69.791 47.1735L62.7677 17.0002C62.4479 15.6241 61.8159 14.34 60.9207 13.2471C60.0256 12.1542 58.8911 11.2817 57.605 10.6971C56.3189 10.1124 54.9156 9.83132 53.5035 9.87542C52.0915 9.91952 50.7085 10.2877 49.4614 10.9514C48.2142 11.6151 47.1364 12.5567 46.3112 13.7034C45.4859 14.85 44.9354 16.1711 44.702 17.5644C44.4686 18.9577 44.5587 20.3861 44.9653 21.739C45.3718 23.092 46.084 24.3334 47.0468 25.3673L68.162 48.0435C68.306 48.1964 68.4964 48.2978 68.7038 48.3317C68.9111 48.3657 69.1239 48.3305 69.3092 48.2315C69.4946 48.1326 69.6422 47.9753 69.7293 47.7841C69.8163 47.5929 69.838 47.3783 69.791 47.1735V47.1735Z" fill="#08BDFD"/>
<path d="M42.2313 80.8454L15.9301 64.4938C13.8525 63.2021 11.3468 62.7887 8.96439 63.3444C6.58195 63.9001 4.51783 65.3795 3.22615 67.4571C1.93446 69.5347 1.52101 72.0404 2.07674 74.4228C2.63247 76.8053 4.11188 78.8694 6.18948 80.161C7.55971 81.0066 9.12485 81.4846 10.7337 81.5487L41.6783 82.6173C41.9306 82.6259 42.176 82.5339 42.3606 82.3616C42.5451 82.1894 42.6538 81.9509 42.6626 81.6986C42.671 81.5311 42.6357 81.3644 42.56 81.2148C42.4844 81.0652 42.3711 80.9379 42.2313 80.8454V80.8454Z" fill="#08BDFD"/>
<path d="M50.0823 122.185L19.9059 129.213C18.5305 129.533 17.247 130.165 16.1546 131.06C15.0622 131.955 14.1901 133.089 13.6057 134.375C13.0212 135.661 12.7402 137.063 12.7841 138.475C12.828 139.887 13.1957 141.269 13.8589 142.516C14.522 143.763 15.4629 144.841 16.6088 145.666C17.7547 146.492 19.075 147.043 20.4677 147.277C21.8605 147.511 23.2884 147.422 24.6412 147.016C25.994 146.611 27.2356 145.9 28.27 144.939L50.9532 123.818C51.1377 123.644 51.2461 123.405 51.2547 123.153C51.2634 122.9 51.1716 122.654 50.9994 122.469C50.8841 122.346 50.739 122.255 50.5783 122.206C50.4176 122.156 50.2467 122.149 50.0823 122.185V122.185Z" fill="#08BDFD"/>
<path d="M112.329 42.0037L112.393 11.0174C112.398 9.60598 112.727 8.2145 113.354 6.95028C113.982 5.68605 114.891 4.58285 116.013 3.72578C117.134 2.8687 118.437 2.28064 119.822 2.00695C121.207 1.73326 122.636 1.78126 123.999 2.14725C125.362 2.51323 126.623 3.18742 127.684 4.11782C128.745 5.04821 129.579 6.20995 130.12 7.51344C130.662 8.81693 130.896 10.2273 130.806 11.6359C130.716 13.0444 130.304 14.4134 129.601 15.6374L114.112 42.4785C114.007 42.6616 113.845 42.8049 113.65 42.8863C113.456 42.9676 113.24 42.9824 113.036 42.9284C112.832 42.8743 112.652 42.7545 112.523 42.5874C112.395 42.4203 112.325 42.2154 112.325 42.0046L112.329 42.0037Z" fill="#08BDFD"/>
<path d="M143.224 70.5731L165.195 48.7098C166.196 47.7115 167.413 46.957 168.753 46.5045C170.092 46.0519 171.517 45.9136 172.919 46.1001C174.32 46.2866 175.66 46.793 176.834 47.58C178.008 48.3671 178.986 49.4137 179.691 50.639C180.396 51.8643 180.809 53.2353 180.9 54.6461C180.99 56.0568 180.755 57.4695 180.212 58.7747C179.669 60.0799 178.833 61.2428 177.769 62.1733C176.705 63.1038 175.441 63.777 174.075 64.1408L144.164 72.1777C143.96 72.2313 143.744 72.2162 143.549 72.1347C143.354 72.0533 143.192 71.91 143.087 71.727C142.982 71.544 142.94 71.3315 142.967 71.1223C142.995 70.9131 143.091 70.7188 143.24 70.5694L143.224 70.5731Z" fill="#08BDFD"/>
</svg>
