<svg width="95" height="42" viewBox="0 0 95 42" fill="none" xmlns="http://www.w3.org/2000/svg">
<g clip-path="url(#clip0_117_2288)">
<path d="M33.118 29.6399C33.3289 29.3686 34.1109 29.6111 33.9567 30.1036C33.504 31.5349 32.2435 33.1599 30.666 33.0186C27.2766 32.7136 28.7826 24.7074 29.5954 22.8436C29.7273 22.5411 31.9327 22.5474 31.5577 23.9636C31.2851 25.0236 29.3623 31.5024 31.2272 31.7311C32.1164 31.8411 32.7467 30.1186 33.118 29.6424V29.6399Z" fill="#021A22"/>
<path d="M34.7449 31.1248C34.5723 31.5498 35.3653 33.2123 36.3212 33.3411C37.9259 33.5573 38.9237 30.3748 39.5293 29.7398C39.8722 29.3811 40.4889 29.9073 40.4001 30.2286C39.8722 32.1211 37.9481 34.7861 35.744 34.4548C33.2192 34.0761 32.3645 30.9573 32.5261 28.7436C32.716 26.1298 33.588 21.1311 37.1266 21.0798C38.6585 21.0573 39.2419 22.5773 39.047 23.8673C38.6104 26.7573 35.2913 29.7798 34.7449 31.1236V31.1248ZM34.6426 29.8211C34.7967 29.8798 36.9293 25.7473 37.1821 23.4673C37.2512 22.8448 37.0662 22.4823 36.8454 22.5223C35.263 22.8098 34.8054 27.4636 34.6734 29.0511C34.65 29.3323 34.6426 29.8211 34.6426 29.8211Z" fill="#021A22"/>
<path d="M24.6307 27.0304C23.7648 29.1617 22.7399 32.5667 21.7569 35.5454C20.4865 36.1442 19.9475 35.7379 19.9228 35.0554C19.8796 33.2617 20.2299 28.4242 20.5679 24.7967L21.4448 24.3104C22.2737 23.8542 22.9311 24.1229 22.8546 24.7629C22.6054 26.7617 21.9258 29.8642 21.7199 32.3917C22.9903 28.4492 23.7661 26.5292 24.8231 24.2017C25.1697 23.4354 26.1786 23.2154 27.1641 24.2904C25.9813 31.2642 26.6448 33.1029 27.3405 33.0654C27.9806 33.0304 28.4431 32.6092 29.0722 30.8279C29.4336 30.5154 30.0601 30.6354 29.9528 31.1017C29.5655 32.7079 28.326 34.1904 26.8631 34.3254C24.9329 34.5029 24.1484 31.5104 24.6282 27.0329L24.6307 27.0304Z" fill="#021A22"/>
<path d="M13.122 26.2434C12.9296 25.8309 12.4659 25.6272 12.0379 25.7672C11.5655 25.9209 11.1042 26.1097 10.6589 26.3309C9.54147 26.8959 8.55105 27.7197 7.7148 28.6709C6.95749 29.5209 6.32846 30.4784 5.84743 31.5147C5.71669 31.7984 5.93747 32.1297 6.23719 32.0997C6.46043 32.0784 6.55171 31.8822 6.66395 31.7109C6.80455 31.4972 6.95256 31.2884 7.1129 31.0872C7.49279 30.5984 7.91091 30.1409 8.36481 29.7209C9.19982 28.9472 10.1779 28.2872 11.2411 27.9122C10.6688 34.7197 9.13075 38.8197 7.92448 39.0409C6.70095 39.2647 4.62143 37.2534 3.71118 31.4772C2.13366 21.4859 4.94582 16.5222 7.98739 15.9647C9.73511 15.6447 10.876 18.0897 9.53777 23.0434C9.42183 23.4384 9.69195 24.2497 10.9858 24.0122C13.608 23.5322 14.9314 12.7847 8.43018 13.9759C1.78091 15.1947 -0.911601 26.1547 0.269997 33.6397C1.31962 40.2884 4.74477 42.1659 6.28406 41.8847C8.31177 41.5122 10.5159 39.7634 11.9984 34.1084C12.7594 31.6884 13.2071 26.7509 13.2071 26.7509C13.2256 26.5772 13.196 26.4022 13.122 26.2434Z" fill="#021A22"/>
<path d="M20.5676 32.8814H19.9829C19.8238 36.3914 17.5137 36.2014 16.6774 35.9639C15.8412 35.7264 15.1788 34.8064 15.3342 34.4314C15.8424 33.1827 19.0135 30.3739 19.418 27.6877C19.5993 26.4889 18.9715 25.0764 17.5482 25.0964C14.2575 25.1439 13.4496 29.7902 13.272 32.2189C13.1252 34.2314 13.885 36.5477 16.1162 36.9977C16.1162 36.9977 18.2426 37.4964 19.5167 36.2114C19.5167 36.2114 20.7945 35.0364 20.5688 32.8827L20.5676 32.8814ZM15.2393 33.2214C15.2393 33.2214 15.2467 32.7652 15.2676 32.5052C15.391 31.0302 15.8165 26.7052 17.2879 26.4389C17.4951 26.4014 17.7492 26.7377 17.6863 27.3164C17.4495 29.4364 15.3823 33.2739 15.2393 33.2214Z" fill="#021A22"/>
<path d="M34.9604 7.31252C33.9453 7.02002 29.272 6.03877 27.8745 11.0563C26.4771 16.0738 30.9815 17.405 30.1255 20.5063C30.1255 20.5063 29.7148 21.5738 30.8322 21.8788C31.9509 22.1838 32.1409 21.0925 32.1409 21.0925C33.0104 17.995 37.6246 19.2875 39.0405 14.2775C40.4564 9.26752 35.9743 7.60502 34.9604 7.31252ZM35.6746 17.3325L35.4908 17.2775C34.916 17.105 34.4523 16.6438 34.1686 15.9688C33.7418 16.2613 33.2941 16.4163 32.8661 16.415C32.6934 16.415 32.5232 16.39 32.3579 16.34C31.7832 16.1688 31.3194 15.7063 31.0357 15.03C30.6077 15.3225 30.1612 15.4775 29.7308 15.4775C29.5593 15.4775 29.3891 15.4513 29.2251 15.4025L29.0413 15.3475L29.272 14.5513L29.4557 14.6063C29.5445 14.6325 29.6358 14.645 29.7271 14.6463C30.1403 14.6463 30.5263 14.4025 30.7928 14.1788C30.6842 13.535 30.7113 12.845 30.868 12.3113C31.0542 11.6713 31.4169 11.305 31.8646 11.305C31.9472 11.305 32.0299 11.3175 32.11 11.3425C32.6552 11.5063 32.8562 12.08 32.6342 12.8413C32.4788 13.3763 32.1298 13.9713 31.6968 14.4488C31.8695 15.0388 32.1865 15.4275 32.5886 15.5475C32.6786 15.575 32.7724 15.5888 32.8661 15.5888C33.2768 15.5888 33.6592 15.3438 33.9256 15.1213C33.7418 14.0425 33.9429 12.95 34.414 12.4975C34.5707 12.34 34.7816 12.25 35.0023 12.2488C35.0838 12.2488 35.1652 12.2613 35.2429 12.285C35.5376 12.3713 35.7621 12.615 35.825 12.92C35.9767 13.56 35.5598 14.5875 34.8284 15.3913C34.9444 15.7663 35.1985 16.3338 35.7214 16.49L35.9052 16.545L35.6746 17.3363V17.3325ZM35.1676 13.0725C35.1615 13.0063 35.1158 12.9513 35.0517 12.935C35.0381 12.9313 35.0246 12.9288 35.011 12.9275H35.0011C34.9542 12.93 34.9111 12.9513 34.8802 12.9863C34.6582 13.1988 34.4831 13.8725 34.5485 14.6588C35.0258 14.0363 35.2379 13.3738 35.1664 13.0738L35.1676 13.0725ZM31.9188 11.9963C31.9077 11.9925 31.8966 11.9913 31.8855 11.99H31.8757C31.7203 11.99 31.5871 12.255 31.5168 12.5013C31.4206 12.8313 31.386 13.2775 31.4206 13.7163C31.6709 13.395 31.8633 13.0313 31.9855 12.6413C32.0126 12.545 32.1409 12.0625 31.9188 11.995V11.9963Z" fill="#08BDFD"/>
<path d="M35.2972 5.74875L35.3083 1.31625C35.3095 0.587503 35.8941 -0.00124801 36.612 1.98676e-06C37.3311 0.00125199 37.912 0.593753 37.9108 1.32125C37.9108 1.55125 37.8503 1.7775 37.7368 1.9775L35.55 5.81625C35.5118 5.88125 35.4292 5.90375 35.365 5.865C35.3231 5.84 35.2984 5.795 35.2984 5.7475L35.2972 5.74875Z" fill="#08BDFD"/>
<path d="M40.1586 9.55926L43.2594 6.43551C43.77 5.92176 44.5939 5.92426 45.1009 6.44051C45.6078 6.95801 45.6053 7.793 45.0959 8.30675C44.9344 8.468 44.7345 8.58551 44.515 8.64551L40.2918 9.78801C40.2203 9.80676 40.1463 9.76426 40.1278 9.69176C40.1142 9.64426 40.1278 9.59426 40.1599 9.55926H40.1586Z" fill="#08BDFD"/>
<path d="M40.3863 15.96L44.76 15.9712C45.479 15.9725 46.06 16.565 46.0575 17.2937C46.0563 18.0225 45.4716 18.6112 44.7526 18.6087C44.5256 18.6087 44.3024 18.5475 44.1063 18.4325L40.3172 16.215C40.2531 16.1762 40.2309 16.0937 40.2679 16.0287C40.2926 15.9862 40.337 15.96 40.3851 15.96H40.3863Z" fill="#08BDFD"/>
<path d="M29.2831 6.39224L28.2927 2.07349C28.1287 1.36474 27.4293 0.923485 26.73 1.08973C26.0307 1.25599 25.5953 1.96474 25.7593 2.67349C25.8111 2.89599 25.9184 3.10224 26.0726 3.26974L29.0537 6.51474C29.1043 6.56974 29.1894 6.57349 29.2449 6.52224C29.2807 6.48849 29.2955 6.43849 29.2844 6.39099L29.2831 6.39224Z" fill="#08BDFD"/>
<path d="M25.9407 11.3679L22.2257 9.02413C21.6164 8.63913 20.8135 8.82663 20.4336 9.44538C20.0537 10.0629 20.2387 10.8766 20.8492 11.2616C21.0429 11.3841 21.2649 11.4529 21.4931 11.4604L25.863 11.6216C25.9383 11.6241 25.9999 11.5641 26.0024 11.4879C26.0036 11.4391 25.9802 11.3929 25.9383 11.3666H25.9407V11.3679Z" fill="#08BDFD"/>
</g>
<path d="M57.9296 24.8368H59.1808C59.0949 24.1499 58.8864 23.5427 58.5552 23.0152C58.2363 22.4877 57.8315 22.0461 57.3408 21.6904C56.8624 21.3224 56.3227 21.0464 55.7216 20.8624C55.1328 20.6784 54.5256 20.5864 53.9 20.5864C52.8696 20.5864 51.9619 20.7765 51.1768 21.1568C50.404 21.5248 49.76 22.0277 49.2448 22.6656C48.7296 23.2912 48.3432 24.0149 48.0856 24.8368C47.828 25.6587 47.6992 26.5235 47.6992 27.4312C47.6992 28.3389 47.828 29.2037 48.0856 30.0256C48.3432 30.8475 48.7296 31.5712 49.2448 32.1968C49.76 32.8224 50.404 33.3253 51.1768 33.7056C51.9619 34.0736 52.8696 34.2576 53.9 34.2576C54.6728 34.2576 55.372 34.1349 55.9976 33.8896C56.6355 33.6443 57.1875 33.2947 57.6536 32.8408C58.1197 32.3869 58.5 31.8349 58.7944 31.1848C59.0888 30.5347 59.2789 29.8048 59.3648 28.9952H58.1136C58.0523 29.584 57.9112 30.136 57.6904 30.6512C57.4696 31.1541 57.1813 31.5957 56.8256 31.976C56.4699 32.3563 56.0467 32.6568 55.556 32.8776C55.0653 33.0984 54.5133 33.2088 53.9 33.2088C53.0291 33.2088 52.2808 33.0432 51.6552 32.712C51.0296 32.3808 50.5144 31.9453 50.1096 31.4056C49.7171 30.8536 49.4227 30.2341 49.2264 29.5472C49.0424 28.848 48.9504 28.1427 48.9504 27.4312C48.9504 26.7075 49.0424 26.0021 49.2264 25.3152C49.4227 24.6283 49.7171 24.0149 50.1096 23.4752C50.5144 22.9232 51.0296 22.4816 51.6552 22.1504C52.2808 21.8192 53.0291 21.6536 53.9 21.6536C54.3784 21.6536 54.8323 21.7272 55.2616 21.8744C55.7032 22.0093 56.1019 22.2117 56.4576 22.4816C56.8256 22.7515 57.1323 23.0888 57.3776 23.4936C57.6352 23.8861 57.8192 24.3339 57.9296 24.8368ZM61.0779 20.8624V34H62.2371V20.8624H61.0779ZM68.4668 25.2048C69.0188 25.2048 69.5033 25.3213 69.9204 25.5544C70.3374 25.7875 70.6809 26.0941 70.9508 26.4744C71.2329 26.8547 71.4414 27.2901 71.5764 27.7808C71.7236 28.2592 71.7972 28.7499 71.7972 29.2528C71.7972 29.7557 71.7236 30.2525 71.5764 30.7432C71.4414 31.2216 71.2329 31.6509 70.9508 32.0312C70.6809 32.4115 70.3374 32.7181 69.9204 32.9512C69.5033 33.1843 69.0188 33.3008 68.4668 33.3008C67.9148 33.3008 67.4302 33.1843 67.0132 32.9512C66.5961 32.7181 66.2465 32.4115 65.9644 32.0312C65.6945 31.6509 65.486 31.2216 65.3388 30.7432C65.2038 30.2525 65.1364 29.7557 65.1364 29.2528C65.1364 28.7499 65.2038 28.2592 65.3388 27.7808C65.486 27.2901 65.6945 26.8547 65.9644 26.4744C66.2465 26.0941 66.5961 25.7875 67.0132 25.5544C67.4302 25.3213 67.9148 25.2048 68.4668 25.2048ZM68.4668 24.2296C67.743 24.2296 67.099 24.3645 66.5348 24.6344C65.9828 24.9043 65.5166 25.2661 65.1364 25.72C64.7561 26.1739 64.4678 26.7075 64.2716 27.3208C64.0753 27.9219 63.9772 28.5659 63.9772 29.2528C63.9772 29.9397 64.0753 30.5899 64.2716 31.2032C64.4678 31.8043 64.7561 32.3317 65.1364 32.7856C65.5166 33.2395 65.9828 33.6013 66.5348 33.8712C67.099 34.1288 67.743 34.2576 68.4668 34.2576C69.1905 34.2576 69.8284 34.1288 70.3804 33.8712C70.9446 33.6013 71.4169 33.2395 71.7972 32.7856C72.1774 32.3317 72.4657 31.8043 72.662 31.2032C72.8582 30.5899 72.9564 29.9397 72.9564 29.2528C72.9564 28.5659 72.8582 27.9219 72.662 27.3208C72.4657 26.7075 72.1774 26.1739 71.7972 25.72C71.4169 25.2661 70.9446 24.9043 70.3804 24.6344C69.8284 24.3645 69.1905 24.2296 68.4668 24.2296ZM82.371 34V24.5056H81.2118V29.492C81.2118 29.9704 81.1566 30.4427 81.0462 30.9088C80.9358 31.3627 80.764 31.7675 80.531 32.1232C80.2979 32.4789 80.0035 32.7672 79.6478 32.988C79.292 33.1965 78.8627 33.3008 78.3598 33.3008C77.4398 33.3008 76.7896 33.08 76.4094 32.6384C76.0414 32.1968 75.8451 31.5467 75.8206 30.688V24.5056H74.6614V30.6696C74.6614 31.2339 74.7227 31.7368 74.8454 32.1784C74.968 32.62 75.1582 32.9941 75.4158 33.3008C75.6856 33.6075 76.0291 33.8405 76.4462 34C76.8755 34.1717 77.3907 34.2576 77.9918 34.2576C78.7032 34.2576 79.3472 34.092 79.9238 33.7608C80.5126 33.4173 80.9603 32.9267 81.267 32.2888H81.3038V34H82.371ZM92.9162 34V20.8624H91.757V26.3088H91.7202C91.5975 25.9653 91.4197 25.6648 91.1866 25.4072C90.9658 25.1496 90.7082 24.9349 90.4138 24.7632C90.1194 24.5792 89.8005 24.4443 89.457 24.3584C89.1258 24.2725 88.7823 24.2296 88.4266 24.2296C87.7029 24.2296 87.0711 24.3645 86.5314 24.6344C86.0039 24.9043 85.5623 25.2723 85.2066 25.7384C84.8509 26.1923 84.5871 26.7259 84.4154 27.3392C84.2437 27.9403 84.1578 28.5781 84.1578 29.2528C84.1578 29.9275 84.2437 30.5715 84.4154 31.1848C84.5871 31.7859 84.8509 32.3195 85.2066 32.7856C85.5623 33.2395 86.0039 33.6013 86.5314 33.8712C87.0711 34.1288 87.7029 34.2576 88.4266 34.2576C88.7701 34.2576 89.1135 34.2085 89.457 34.1104C89.8127 34.0123 90.1439 33.8773 90.4506 33.7056C90.7573 33.5216 91.0271 33.3008 91.2602 33.0432C91.5055 32.7856 91.6895 32.5035 91.8122 32.1968H91.849V34H92.9162ZM85.317 29.2528C85.317 28.7621 85.3722 28.2776 85.4826 27.7992C85.6053 27.3085 85.7893 26.8731 86.0346 26.4928C86.2922 26.1125 86.6173 25.8059 87.0098 25.5728C87.4023 25.3275 87.8746 25.2048 88.4266 25.2048C89.0399 25.2048 89.5551 25.3275 89.9722 25.5728C90.4015 25.8059 90.745 26.1125 91.0026 26.4928C91.2725 26.8731 91.4626 27.3085 91.573 27.7992C91.6957 28.2776 91.757 28.7621 91.757 29.2528C91.757 29.7435 91.6957 30.2341 91.573 30.7248C91.4626 31.2032 91.2725 31.6325 91.0026 32.0128C90.745 32.3931 90.4015 32.7059 89.9722 32.9512C89.5551 33.1843 89.0399 33.3008 88.4266 33.3008C87.8746 33.3008 87.4023 33.1843 87.0098 32.9512C86.6173 32.7059 86.2922 32.3931 86.0346 32.0128C85.7893 31.6325 85.6053 31.2032 85.4826 30.7248C85.3722 30.2341 85.317 29.7435 85.317 29.2528Z" fill="#021A22"/>
<defs>
<clipPath id="clip0_117_2288">
<rect width="46" height="42" fill="white"/>
</clipPath>
</defs>
</svg>
